<svg xmlns="http://www.w3.org/2000/svg" width="32" height="32" fill="none" viewBox="0 0 32 32">
  <g clip-path="url(#a)">
    <path fill="#fff" d="M14.277 10.455a1.477 1.477 0 0 0-2.215 1.28v8.532a1.476 1.476 0 0 0 2.215 1.28l8.123-4.694a.984.984 0 0 0 0-1.706l-8.123-4.692ZM.247 16a15.754 15.754 0 1 1 31.507 0A15.754 15.754 0 0 1 .246 16ZM16 2.215a13.784 13.784 0 1 0 0 27.569 13.784 13.784 0 0 0 0-27.569Z"/>
  </g>
  <defs>
    <clipPath id="a">
      <path fill="#fff" d="M0 0h32v32H0z"/>
    </clipPath>
  </defs>
</svg>
